<?xml version="1.0" encoding="utf-8"?>
<!-- Generator: Adobe Illustrator 27.2.0, SVG Export Plug-In . SVG Version: 6.00 Build 0)  -->
<svg version="1.1" id="Layer_1" xmlns="http://www.w3.org/2000/svg" xmlns:xlink="http://www.w3.org/1999/xlink" x="0px" y="0px"
	 width="716.5px" height="471.5px" viewBox="0 0 716.5 471.5" style="enable-background:new 0 0 716.5 471.5;" xml:space="preserve"
	>
<style type="text/css">
	.st0{fill:#CFDACA;}
</style>
<g>
	<g>
		<path class="st0" d="M246.5,439.6c-61.3-0.5-127-2.3-179.4-38.3C43,384.7,24.8,361.6,15,334c-9.5-26.8-11.8-56-7.8-84.1
			c7.6-54.3,37.1-104.3,76.8-141.4c43-40.2,98.3-65.3,154.7-80.7c28.7-7.8,58.1-13.2,87.6-17c31.8-4.1,63.9-6.2,96-5.8
			C483.9,5.7,547.5,15.7,603.8,42c47.2,22.1,91.7,58.8,103.9,111.8c12.8,55.8-12.3,114.1-47.4,156.6
			c-36.6,44.4-85.5,77.6-137.6,101.3c-58.8,26.8-122.3,41.5-185.8,51.6c-16.1,2.6-32.2,4.8-48.4,6.9c-1.9,0.2-1.9,3.2,0,3
			c67.1-8.7,134.3-20.3,198.1-43.6c55.1-20.1,107.7-49.2,150.3-89.9c40.7-38.8,73.9-90.7,76.9-148.3c1.4-27.3-5.1-54.4-19.3-77.9
			c-13.6-22.4-33.2-40.7-55-55.2C589.6,25.3,528.2,10.2,469.2,4.5c-63.8-6.2-129.1-1.2-191.9,11.2c-59.2,11.7-117.8,32.1-167.1,67.5
			C65.1,115.7,29,161.6,12.1,214.9C-4.8,268.1-1.2,332,35.4,376.5C74.5,424,138.5,438.2,197,441.3c16.5,0.9,33,1.1,49.4,1.2
			C248.4,442.6,248.4,439.6,246.5,439.6L246.5,439.6z"/>
	</g>
</g>
</svg>
